HIERARCHY
ROOT newVegas:Hips
{
	OFFSET 0.000000 96.479958 0.000000
	CHANNELS 6 Xposition Yposition Zposition Xrotation Yrotation Zrotation
	JOINT newVegas:Pelvis
	{
		OFFSET 0.000000 0.000000 0.000000
		CHANNELS 3 Xrotation Yrotation Zrotation
		JOINT newVegas:LeftUpLeg
		{
			OFFSET 18.735201 -5.666702 -4.541200
			CHANNELS 3 Xrotation Yrotation Zrotation
			JOINT newVegas:LeftLeg
			{
				OFFSET -0.021200 -31.938179 0.493100
				CHANNELS 3 Xrotation Yrotation Zrotation
				JOINT newVegas:LeftFoot
				{
					OFFSET 0.021200 -31.938179 -4.336299
					CHANNELS 3 Xrotation Yrotation Zrotation
					JOINT newVegas:LeftToeBase
					{
						OFFSET 0.943001 -26.722000 15.023500
						CHANNELS 3 Xrotation Yrotation Zrotation
						End Site
						{
							OFFSET 0.000000 30.670183 0.000000
						}
					}
				}
				JOINT newVegas:Left_PantLeg
				{
					OFFSET 0.663870 -9.044666 -1.108900
					CHANNELS 3 Xrotation Yrotation Zrotation
					End Site
					{
						OFFSET 1.415995 20.635357 0.000000
					}
				}
			}
		}
		JOINT newVegas:RightUpLeg
		{
			OFFSET -18.735201 -5.666702 -4.541200
			CHANNELS 3 Xrotation Yrotation Zrotation
			JOINT newVegas:RightLeg
			{
				OFFSET 0.018946 -31.938133 0.493100
				CHANNELS 3 Xrotation Yrotation Zrotation
				JOINT newVegas:RightFoot
				{
					OFFSET -0.018946 -31.938126 -4.336299
					CHANNELS 3 Xrotation Yrotation Zrotation
					JOINT newVegas:RightToeBase
					{
						OFFSET -0.943001 -26.722004 15.023500
						CHANNELS 3 Xrotation Yrotation Zrotation
						End Site
						{
							OFFSET 0.000000 30.670187 0.000000
						}
					}
				}
				JOINT newVegas:Right_PantLeg
				{
					OFFSET -0.661674 -9.044716 -1.108900
					CHANNELS 3 Xrotation Yrotation Zrotation
					End Site
					{
						OFFSET -1.415958 20.635269 0.000000
					}
				}
			}
		}
	}
	JOINT newVegas:Spine
	{
		OFFSET 0.000000 10.199997 -0.299500
		CHANNELS 3 Xrotation Yrotation Zrotation
		JOINT newVegas:Spine1
		{
			OFFSET 0.000000 11.900002 -1.516600
			CHANNELS 3 Xrotation Yrotation Zrotation
			JOINT newVegas:Spine2
			{
				OFFSET 0.000000 13.600006 -2.842500
				CHANNELS 3 Xrotation Yrotation Zrotation
				JOINT newVegas:Neck
				{
					OFFSET 0.000000 9.624100 -2.890100
					CHANNELS 3 Xrotation Yrotation Zrotation
					JOINT newVegas:Head
					{
						OFFSET 0.000000 14.068802 -1.351900
						CHANNELS 3 Xrotation Yrotation Zrotation
						JOINT newVegas:Hair_Back
						{
							OFFSET 0.000000 3.231903 -17.524799
							CHANNELS 3 Xrotation Yrotation Zrotation
							End Site
							{
								OFFSET 0.000000 19.849884 0.000000
							}
						}
						JOINT newVegas:Hair_Front
						{
							OFFSET 0.000000 31.260406 4.573800
							CHANNELS 3 Xrotation Yrotation Zrotation
							JOINT newVegas:Hair_Front1
							{
								OFFSET 0.000000 2.284103 11.993300
								CHANNELS 3 Xrotation Yrotation Zrotation
								JOINT newVegas:Hair_Front2
								{
									OFFSET 0.000000 2.284103 11.993300
									CHANNELS 3 Xrotation Yrotation Zrotation
									End Site
									{
										OFFSET 0.000000 12.208862 0.000000
									}
								}
							}
						}
						JOINT newVegas:Jowel
						{
							OFFSET 0.000000 -7.458206 6.864100
							CHANNELS 3 Xrotation Yrotation Zrotation
							End Site
							{
								OFFSET 0.000000 19.849884 0.000000
							}
						}
					}
				}
				JOINT newVegas:LeftShoulder
				{
					OFFSET 15.263000 10.923401 -0.547700
					CHANNELS 3 Xrotation Yrotation Zrotation
					JOINT newVegas:LeftArm
					{
						OFFSET 25.438599 -2.830597 -13.032500
						CHANNELS 3 Xrotation Yrotation Zrotation
						JOINT newVegas:LeftForeArm
						{
							OFFSET 29.960503 0.000000 0.000000
							CHANNELS 3 Xrotation Yrotation Zrotation
							JOINT newVegas:LeftHand
							{
								OFFSET 27.849251 0.000000 0.000000
								CHANNELS 3 Xrotation Yrotation Zrotation
								JOINT newVegas:LeftHandThumb1
								{
									OFFSET 4.487587 -3.305161 6.305391
									CHANNELS 3 Xrotation Yrotation Zrotation
									JOINT newVegas:LeftHandThumb2
									{
										OFFSET 5.480453 -3.164139 3.164143
										CHANNELS 3 Xrotation Yrotation Zrotation
										JOINT newVegas:LeftHandThumb3
										{
											OFFSET 5.159721 -2.978973 2.978967
											CHANNELS 3 Xrotation Yrotation Zrotation
											End Site
											{
												OFFSET 2.494507 5.926697 1.738678
											}
										}
									}
								}
								JOINT newVegas:LeftHandIndex1
								{
									OFFSET 18.578728 -0.527832 5.208049
									CHANNELS 3 Xrotation Yrotation Zrotation
									JOINT newVegas:LeftHandIndex2
									{
										OFFSET 3.192009 0.000000 0.000000
										CHANNELS 3 Xrotation Yrotation Zrotation
										JOINT newVegas:LeftHandIndex3
										{
											OFFSET 3.835129 0.000000 0.000000
											CHANNELS 3 Xrotation Yrotation Zrotation
											End Site
											{
												OFFSET -0.034599 3.816971 0.371180
											}
										}
									}
								}
								JOINT newVegas:LeftHandMiddle1
								{
									OFFSET 18.476105 0.000000 0.000000
									CHANNELS 3 Xrotation Yrotation Zrotation
									JOINT newVegas:LeftHandMiddle2
									{
										OFFSET 3.324875 0.000000 0.000000
										CHANNELS 3 Xrotation Yrotation Zrotation
										JOINT newVegas:LeftHandMiddle3
										{
											OFFSET 4.596550 0.000000 0.000000
											CHANNELS 3 Xrotation Yrotation Zrotation
											End Site
											{
												OFFSET 0.057701 4.578827 0.399218
											}
										}
									}
								}
								JOINT newVegas:LeftHandRing1
								{
									OFFSET 17.732719 0.121887 -4.201567
									CHANNELS 3 Xrotation Yrotation Zrotation
									JOINT newVegas:LeftHandRing2
									{
										OFFSET 2.733170 0.000000 0.000000
										CHANNELS 3 Xrotation Yrotation Zrotation
										JOINT newVegas:LeftHandRing3
										{
											OFFSET 3.178268 0.000000 0.000000
											CHANNELS 3 Xrotation Yrotation Zrotation
											End Site
											{
												OFFSET 0.119102 3.170624 0.185394
											}
										}
									}
								}
								JOINT newVegas:LeftHandPinky1
								{
									OFFSET 15.989624 -0.606689 -7.535461
									CHANNELS 3 Xrotation Yrotation Zrotation
									JOINT newVegas:LeftHandPinky2
									{
										OFFSET 2.538986 0.000000 0.000000
										CHANNELS 3 Xrotation Yrotation Zrotation
										JOINT newVegas:LeftHandPinky3
										{
											OFFSET 2.593102 0.000000 0.000000
											CHANNELS 3 Xrotation Yrotation Zrotation
											End Site
											{
												OFFSET -0.150902 2.584198 0.152708
											}
										}
									}
								}
							}
							JOINT newVegas:Left_Sleeve
							{
								OFFSET 0.267448 -0.649796 0.577675
								CHANNELS 3 Xrotation Yrotation Zrotation
								End Site
								{
									OFFSET 0.000000 15.991241 0.000000
								}
							}
							JOINT newVegas:Left_CapeC
							{
								OFFSET 15.715958 -8.608795 -6.935905
								CHANNELS 3 Xrotation Yrotation Zrotation
								JOINT newVegas:Left_CapeC1
								{
									OFFSET 0.000000 -8.688499 0.000000
									CHANNELS 3 Xrotation Yrotation Zrotation
									End Site
									{
										OFFSET 0.000000 8.688499 0.000000
									}
								}
							}
						}
						JOINT newVegas:Left_CapeB
						{
							OFFSET 26.118385 -8.608795 -7.079235
							CHANNELS 3 Xrotation Yrotation Zrotation
							JOINT newVegas:Left_CapeB1
							{
								OFFSET 0.000000 -8.688499 0.000000
								CHANNELS 3 Xrotation Yrotation Zrotation
								End Site
								{
									OFFSET 0.000000 8.688499 0.000000
								}
							}
						}
						JOINT newVegas:Left_CapeA
						{
							OFFSET 5.115639 -8.608795 -10.395809
							CHANNELS 3 Xrotation Yrotation Zrotation
							JOINT newVegas:Left_CapeA1
							{
								OFFSET 0.000000 -8.688499 0.000000
								CHANNELS 3 Xrotation Yrotation Zrotation
								End Site
								{
									OFFSET 0.000000 8.688499 0.000000
								}
							}
						}
					}
				}
				JOINT newVegas:RightShoulder
				{
					OFFSET -15.263000 10.923401 -0.547700
					CHANNELS 3 Xrotation Yrotation Zrotation
					JOINT newVegas:RightArm
					{
						OFFSET -25.438599 -2.830597 -13.032500
						CHANNELS 3 Xrotation Yrotation Zrotation
						JOINT newVegas:RightForeArm
						{
							OFFSET -29.960503 0.000000 0.000000
							CHANNELS 3 Xrotation Yrotation Zrotation
							JOINT newVegas:RightHand
							{
								OFFSET -27.849251 0.000000 0.000000
								CHANNELS 3 Xrotation Yrotation Zrotation
								JOINT newVegas:RightHandThumb1
								{
									OFFSET -4.487587 -3.305161 6.305391
									CHANNELS 3 Xrotation Yrotation Zrotation
									JOINT newVegas:RightHandThumb2
									{
										OFFSET -5.480453 -3.164139 3.164143
										CHANNELS 3 Xrotation Yrotation Zrotation
										JOINT newVegas:RightHandThumb3
										{
											OFFSET -5.159721 -2.978973 2.978967
											CHANNELS 3 Xrotation Yrotation Zrotation
											End Site
											{
												OFFSET -2.494507 5.926697 1.738678
											}
										}
									}
								}
								JOINT newVegas:RightHandIndex1
								{
									OFFSET -18.578728 -0.527832 5.208049
									CHANNELS 3 Xrotation Yrotation Zrotation
									JOINT newVegas:RightHandIndex2
									{
										OFFSET -3.192009 0.000000 0.000000
										CHANNELS 3 Xrotation Yrotation Zrotation
										JOINT newVegas:RightHandIndex3
										{
											OFFSET -3.835129 0.000000 0.000000
											CHANNELS 3 Xrotation Yrotation Zrotation
											End Site
											{
												OFFSET 0.034599 3.816971 0.371180
											}
										}
									}
								}
								JOINT newVegas:RightHandMiddle1
								{
									OFFSET -18.476105 0.000000 0.000000
									CHANNELS 3 Xrotation Yrotation Zrotation
									JOINT newVegas:RightHandMiddle2
									{
										OFFSET -3.324875 0.000000 0.000000
										CHANNELS 3 Xrotation Yrotation Zrotation
										JOINT newVegas:RightHandMiddle3
										{
											OFFSET -4.596550 0.000000 0.000000
											CHANNELS 3 Xrotation Yrotation Zrotation
											End Site
											{
												OFFSET -0.057701 4.578827 0.399218
											}
										}
									}
								}
								JOINT newVegas:RightHandRing1
								{
									OFFSET -17.732719 0.121887 -4.201567
									CHANNELS 3 Xrotation Yrotation Zrotation
									JOINT newVegas:RightHandRing2
									{
										OFFSET -2.733170 0.000000 0.000000
										CHANNELS 3 Xrotation Yrotation Zrotation
										JOINT newVegas:RightHandRing3
										{
											OFFSET -3.178268 0.000000 0.000000
											CHANNELS 3 Xrotation Yrotation Zrotation
											End Site
											{
												OFFSET -0.119102 3.170624 0.185394
											}
										}
									}
								}
								JOINT newVegas:RightHandPinky1
								{
									OFFSET -15.989624 -0.606689 -7.535461
									CHANNELS 3 Xrotation Yrotation Zrotation
									JOINT newVegas:RightHandPinky2
									{
										OFFSET -2.538986 0.000000 0.000000
										CHANNELS 3 Xrotation Yrotation Zrotation
										JOINT newVegas:RightHandPinky3
										{
											OFFSET -2.593102 0.000000 0.000000
											CHANNELS 3 Xrotation Yrotation Zrotation
											End Site
											{
												OFFSET 0.150902 2.584198 0.152708
											}
										}
									}
								}
							}
							JOINT newVegas:Right_CapeC
							{
								OFFSET -15.715958 -8.608795 -6.935905
								CHANNELS 3 Xrotation Yrotation Zrotation
								JOINT newVegas:Right_CapeC1
								{
									OFFSET 0.000000 -8.688499 0.000000
									CHANNELS 3 Xrotation Yrotation Zrotation
									End Site
									{
										OFFSET 0.000000 8.688499 0.000000
									}
								}
							}
							JOINT newVegas:Right_Sleeve
							{
								OFFSET -0.267448 -0.649994 0.577675
								CHANNELS 3 Xrotation Yrotation Zrotation
								End Site
								{
									OFFSET 0.000000 15.991302 0.000000
								}
							}
						}
						JOINT newVegas:Right_CapeA
						{
							OFFSET -5.115540 -8.608795 -10.395824
							CHANNELS 3 Xrotation Yrotation Zrotation
							JOINT newVegas:Right_CapeA1
							{
								OFFSET 0.000000 -8.688499 0.000000
								CHANNELS 3 Xrotation Yrotation Zrotation
								End Site
								{
									OFFSET 0.000000 8.688499 0.000000
								}
							}
						}
						JOINT newVegas:Right_CapeB
						{
							OFFSET -26.118187 -8.608795 -7.079266
							CHANNELS 3 Xrotation Yrotation Zrotation
							JOINT newVegas:Right_CapeB1
							{
								OFFSET 0.000000 -8.688499 0.000000
								CHANNELS 3 Xrotation Yrotation Zrotation
								End Site
								{
									OFFSET 0.000000 8.688499 0.000000
								}
							}
						}
					}
				}
				JOINT newVegas:Left_Collar
				{
					OFFSET 18.625099 8.655502 8.828100
					CHANNELS 3 Xrotation Yrotation Zrotation
					JOINT newVegas:Left_Collar1
					{
						OFFSET 14.783401 10.540405 -1.259500
						CHANNELS 3 Xrotation Yrotation Zrotation
						End Site
						{
							OFFSET 0.000000 18.199875 0.000000
						}
					}
				}
				JOINT newVegas:Collar_Back
				{
					OFFSET 0.000000 15.630707 -20.132601
					CHANNELS 3 Xrotation Yrotation Zrotation
					End Site
					{
						OFFSET 0.000000 22.523010 0.000000
					}
				}
				JOINT newVegas:Left_Peck
				{
					OFFSET 17.239599 -5.132599 25.482599
					CHANNELS 3 Xrotation Yrotation Zrotation
					End Site
					{
						OFFSET 0.000000 22.523010 0.000000
					}
				}
				JOINT newVegas:Right_Peck
				{
					OFFSET -17.239599 -5.132202 25.482599
					CHANNELS 3 Xrotation Yrotation Zrotation
					End Site
					{
						OFFSET 0.000000 22.523010 0.000000
					}
				}
				JOINT newVegas:Right_Collar
				{
					OFFSET -18.625099 8.655792 8.828100
					CHANNELS 3 Xrotation Yrotation Zrotation
					JOINT newVegas:Right_Collar1
					{
						OFFSET -14.783401 10.539993 -1.259500
						CHANNELS 3 Xrotation Yrotation Zrotation
						End Site
						{
							OFFSET 0.000000 18.199631 0.000000
						}
					}
				}
			}
		}
		JOINT newVegas:Belly
		{
			OFFSET 0.000000 -6.540398 9.014299
			CHANNELS 3 Xrotation Yrotation Zrotation
			End Site
			{
				OFFSET 0.000000 11.566666 0.000000
			}
		}
	}
	JOINT newVegas:ElvisFacialAnim_Joint
	{
		OFFSET 1.000000 -95.330101 -8.825800
		CHANNELS 3 Xrotation Yrotation Zrotation
		End Site
		{
			OFFSET 0.000000 35.315800 0.000000
		}
	}
}
MOTION
Frames: 4
Frame Time: 0.016667
1.818841 44.503540 -0.989922 0.978446 -28.506991 8.917720 0.000000 -0.000001 -0.000001 -84.125610 -26.536395 51.215938 78.118820 4.424817 -6.432329 36.145337 -1.315081 -16.031122 0.000000 0.000000 0.000000 -0.000000 0.000000 0.000003 -30.127920 7.694043 -20.194446 107.619172 11.645800 -0.181033 33.455008 5.202151 24.842957 0.000002 -0.000001 0.000000 0.000001 0.000001 -0.000003 3.559719 -6.181170 -4.217902 2.855675 -4.198783 -2.072993 2.773303 -4.260251 -2.035174 0.192824 1.126497 0.868253 0.192824 1.126495 0.868255 0.000000 -0.000002 0.000001 0.192829 1.126499 0.868252 0.192828 1.126520 0.868253 -0.000000 0.000002 -0.000000 0.000000 -0.000002 0.000001 1.530509 -0.690789 -2.366978 -3.234549 -12.111245 -50.675380 0.000536 -87.973280 0.000652 -53.085077 20.313618 41.451865 -1.540049 3.690180 6.142341 3.939053 7.948709 0.746824 0.000001 -0.000003 -0.000003 1.016531 3.605848 -31.478709 1.016547 3.605830 -31.478709 -0.000000 -0.000002 -0.000000 1.299296 4.030444 -35.722873 1.301541 4.033581 -35.754999 -0.000000 -0.000000 -0.000001 1.751608 4.592876 -41.733696 1.751619 4.592883 -41.733692 -0.000003 0.000001 0.000000 4.911449 7.752516 -44.887877 2.046410 0.814375 -45.446965 0.000001 -0.000002 0.000000 -0.000001 -0.000001 -0.000002 -0.000001 -0.000001 -0.000002 -0.000002 -0.000000 -0.000002 -0.000002 0.000001 0.000004 -0.000001 0.000000 0.000000 -0.000002 0.000001 0.000004 -0.000001 -0.000000 0.000005 5.585478 17.928710 2.373359 -33.414665 -16.065392 41.084633 -0.000715 92.810291 0.000557 44.885353 -28.255036 9.382480 -1.849241 -3.581787 -6.586139 4.637190 -8.634127 -0.225404 0.000001 -0.000003 0.000001 0.081187 -1.061620 8.746197 0.001253 -0.132363 1.086261 -0.000000 0.000000 -0.000000 0.493231 -2.576613 21.670008 0.002550 -0.188684 1.548421 -0.000002 0.000002 0.000002 0.682836 -3.009773 25.559230 0.002550 -0.188684 1.548416 0.000001 -0.000003 -0.000002 1.013756 -3.620340 31.277123 0.002548 -0.188683 1.548434 -0.000000 -0.000002 0.000001 0.000002 0.000002 0.000001 0.000002 -0.000001 0.000000 0.000002 0.000001 0.000002 0.000002 -0.000002 0.000001 0.000002 -0.000001 -0.000000 0.000002 -0.000002 0.000001 0.000002 -0.000001 0.000002 0.000001 -0.000001 -0.000000 0.000001 -0.000001 -0.000000 0.000001 -0.000001 -0.000000 0.000001 -0.000001 -0.000000 0.000001 -0.000001 -0.000000 0.000001 -0.000001 -0.000000 0.000001 -0.000001 -0.000000 -0.000000 0.000001 0.000001 0.000000 -0.000001 -0.000001 
1.794739 44.516121 -0.981682 1.039977 -28.509367 8.977237 -0.000000 -0.000000 0.000000 -84.111471 -26.460081 51.310416 78.075858 4.413281 -6.490000 36.158393 -1.237753 -15.999221 -0.000000 -0.000001 -0.000000 -0.000001 0.000001 -0.000000 -30.283583 7.708791 -20.136228 107.692091 11.616131 -0.179102 33.413845 5.158444 24.703466 -0.000000 -0.000001 0.000001 -0.000000 0.000000 0.000000 3.553536 -6.127876 -4.346597 2.844910 -4.152764 -2.149814 2.768607 -4.212008 -2.111295 0.200337 1.132792 0.945424 0.200336 1.132816 0.945423 0.000000 -0.000002 0.000000 0.200334 1.132796 0.945422 0.200335 1.132828 0.945418 0.000000 0.000003 -0.000001 0.000000 -0.000002 0.000001 1.530164 -0.744398 -1.917309 -3.271996 -12.105440 -51.033029 0.001309 -88.077345 0.001425 -52.890099 20.116154 41.398709 -1.540047 3.690178 6.142339 3.939058 7.948709 0.746823 -0.000000 -0.000001 -0.000001 1.016536 3.605842 -31.478709 1.016543 3.605831 -31.478709 -0.000001 -0.000002 0.000000 1.299296 4.030443 -35.722876 1.301536 4.033577 -35.755002 -0.000002 -0.000000 -0.000001 1.751611 4.592872 -41.733696 1.751619 4.592883 -41.733689 0.000001 -0.000001 -0.000000 4.911450 7.752511 -44.887873 2.046411 0.814376 -45.446965 0.000001 -0.000002 0.000000 0.000002 0.000002 0.000001 0.000002 0.000002 0.000001 0.000001 0.000002 0.000001 0.000001 0.000001 0.000001 0.000002 0.000000 -0.000002 0.000001 0.000001 0.000001 0.000001 0.000001 0.000001 5.560238 17.956438 2.651589 -32.494441 -15.150569 39.610296 -0.000441 94.692903 0.000417 40.622092 -28.211611 8.823203 -1.849240 -3.581787 -6.586138 4.637187 -8.634126 -0.225405 0.000002 -0.000000 -0.000003 0.081134 -1.061268 8.743206 0.000148 -0.046012 0.377547 0.000000 0.000001 -0.000001 0.505643 -2.607619 21.944571 0.000310 -0.065743 0.539479 0.000000 -0.000001 0.000004 0.699980 -3.045327 25.883931 0.000310 -0.065745 0.539480 -0.000001 0.000004 -0.000000 1.039064 -3.661606 31.675658 0.000311 -0.065739 0.539495 -0.000000 0.000001 0.000001 -0.000001 0.000003 0.000003 -0.000001 0.000001 0.000002 -0.000001 0.000002 0.000003 -0.000002 0.000004 -0.000000 -0.000002 0.000005 -0.000001 -0.000002 0.000004 -0.000000 -0.000002 0.000005 0.000001 -0.000000 0.000001 -0.000000 -0.000000 0.000001 -0.000000 -0.000000 0.000001 -0.000000 -0.000000 0.000001 -0.000000 -0.000000 0.000001 -0.000000 -0.000000 0.000001 -0.000000 -0.000000 0.000001 -0.000000 0.000000 0.000001 0.000000 -0.000000 -0.000000 0.000000 
1.769332 44.523193 -0.976027 1.106832 -28.505327 9.047229 0.000000 0.000003 -0.000000 -84.110303 -26.374063 51.398758 78.026319 4.410401 -6.547011 36.171849 -1.190950 -15.959481 -0.000000 0.000001 -0.000001 0.000001 -0.000001 -0.000002 -30.424593 7.718807 -20.090838 107.752306 11.601438 -0.178457 33.382485 5.124354 24.595632 0.000003 -0.000001 -0.000000 -0.000000 0.000000 -0.000003 3.540971 -6.082699 -4.474713 2.829098 -4.112367 -2.227856 2.758117 -4.169726 -2.188755 0.209316 1.140921 1.015291 0.209325 1.140899 1.015298 0.000002 -0.000000 -0.000000 0.209316 1.140915 1.015291 0.209324 1.140904 1.015292 -0.000000 -0.000001 0.000000 0.000002 -0.000000 -0.000000 1.512193 -0.744068 -1.544897 -3.279717 -12.155403 -51.329835 0.000022 -88.114201 -0.000208 -52.731618 19.892615 41.299166 -1.540050 3.690180 6.142343 3.939056 7.948706 0.746826 -0.000001 0.000002 -0.000001 1.016534 3.605843 -31.478706 1.016543 3.605831 -31.478706 0.000002 0.000002 0.000001 1.299298 4.030441 -35.722876 1.301542 4.033575 -35.755002 -0.000004 -0.000001 -0.000002 1.751610 4.592870 -41.733696 1.751620 4.592877 -41.733689 0.000001 0.000001 0.000000 4.911450 7.752513 -44.887870 2.046412 0.814375 -45.446972 0.000000 -0.000003 -0.000000 -0.000000 0.000002 0.000002 -0.000000 0.000002 0.000002 -0.000001 0.000002 0.000002 -0.000002 -0.000001 -0.000002 -0.000001 -0.000001 -0.000007 -0.000002 -0.000001 -0.000002 -0.000003 0.000000 -0.000002 5.540488 17.992979 2.918226 -31.912918 -14.467691 38.297646 -0.000786 96.455201 0.000813 36.803101 -27.544621 9.079540 -1.849238 -3.581788 -6.586137 4.637185 -8.634123 -0.225405 0.000003 -0.000003 -0.000001 0.081081 -1.060914 8.740248 -0.000002 -0.003752 0.030857 -0.000001 0.000002 0.000000 0.515000 -2.630684 22.149265 0.000003 -0.003841 0.031513 -0.000001 -0.000001 -0.000002 0.712896 -3.071760 26.125991 0.000005 -0.003846 0.031516 0.000001 -0.000006 -0.000002 1.058117 -3.692232 31.972778 0.000002 -0.003844 0.031515 0.000001 0.000002 -0.000000 0.000002 -0.000002 -0.000003 -0.000000 -0.000000 0.000001 0.000002 -0.000002 -0.000003 -0.000001 0.000000 -0.000001 -0.000001 0.000001 -0.000002 -0.000001 0.000000 -0.000001 -0.000001 0.000001 -0.000002 0.000001 0.000000 -0.000000 0.000001 0.000000 -0.000000 0.000001 0.000000 -0.000000 0.000001 0.000000 -0.000000 0.000001 0.000000 -0.000000 0.000001 0.000000 -0.000000 0.000001 0.000000 -0.000000 -0.000000 0.000000 0.000000 0.000000 0.000003 -0.000000 
1.741692 44.525276 -0.973379 1.172246 -28.488420 9.118830 -0.000000 0.000002 -0.000000 -84.110378 -26.292239 51.480830 77.967128 4.418193 -6.615320 36.189470 -1.177921 -15.912227 -0.000000 0.000001 0.000000 -0.000001 0.000000 0.000001 -30.536536 7.711126 -20.057754 107.790234 11.594469 -0.181329 33.366051 5.101814 24.521682 0.000002 -0.000001 0.000000 0.000001 0.000000 -0.000001 3.524594 -6.048939 -4.601641 2.810492 -4.080789 -2.306023 2.744172 -4.136585 -2.266373 0.215620 1.147344 1.081317 0.215631 1.147314 1.081320 0.000001 -0.000001 -0.000000 0.215692 1.147333 1.081315 0.215625 1.147335 1.081315 -0.000000 0.000002 -0.000001 0.000001 -0.000001 0.000000 1.480362 -0.701462 -1.238072 -3.264501 -12.231477 -51.554319 -0.000240 -88.164840 -0.000320 -52.644086 19.692569 41.206166 -1.540048 3.690179 6.142342 3.939058 7.948704 0.746827 0.000003 0.000001 -0.000001 1.016534 3.605850 -31.478703 1.016544 3.605831 -31.478703 0.000000 -0.000002 0.000001 1.299298 4.030446 -35.722883 1.301537 4.033581 -35.755002 0.000003 0.000001 -0.000000 1.751607 4.592875 -41.733696 1.751617 4.592881 -41.733689 -0.000005 -0.000001 -0.000000 4.911448 7.752516 -44.887873 2.046411 0.814375 -45.446972 0.000004 0.000000 -0.000001 -0.000002 0.000001 0.000002 -0.000002 0.000001 0.000002 -0.000003 0.000001 0.000002 -0.000000 0.000000 -0.000001 0.000000 -0.000000 -0.000005 -0.000000 0.000000 -0.000001 -0.000001 0.000001 -0.000000 5.526707 18.040667 3.182610 -31.850934 -14.060285 37.299540 -0.001221 98.091741 0.001189 34.080253 -26.275760 10.628199 -1.849237 -3.581791 -6.586138 4.637187 -8.634123 -0.225407 0.000004 -0.000006 -0.000002 0.081027 -1.060576 8.737471 0.000003 0.003400 0.000004 0.000001 -0.000002 -0.000001 0.521051 -2.645486 22.280712 0.000008 0.008577 0.000020 -0.000002 -0.000002 0.000002 0.721248 -3.088717 26.281444 0.000004 0.008579 -0.000039 -0.000001 0.000002 0.000003 1.070441 -3.711869 32.163562 0.000007 0.008593 0.000030 0.000004 0.000002 -0.000002 -0.000000 -0.000003 -0.000001 -0.000000 -0.000002 0.000000 -0.000001 -0.000002 -0.000002 0.000001 -0.000001 -0.000000 0.000001 0.000000 0.000001 0.000001 -0.000001 -0.000000 0.000001 -0.000000 0.000001 0.000001 -0.000001 0.000001 0.000001 -0.000001 0.000001 0.000001 -0.000001 0.000001 0.000001 -0.000001 0.000001 0.000001 -0.000001 0.000001 0.000001 -0.000001 0.000001 0.000001 -0.000001 0.000001 -0.000000 -0.000001 0.000000 -0.000000 0.000002 -0.000000 
